:version 1.10
:name ASF
:units
  mass 1
  length 1
  angle deg
:documentation
  ASF file generated by Kaydara
:root
  axis xyz
  order  tx ty tz rx ry rz
  position 0 0 0
  orientation 0 0 0
:bonedata
  begin
    id 1
    name RightUpLegDummy
    direction -0.718183 -0.695806 0.00816078
    length 4.904
    axis 0 0 0 xyz
  end
  begin
    id 2
    name RightUpLeg
    direction 3.53373e-006 -0.995788 0.0916898
    length 17.4976
    axis -3.49089 -0.000906625 0.000286804 xyz
    dof rx ry rz
  end
  begin
    id 3
    name RightLeg
    direction 0.00371092 -0.995096 -0.0988419
    length 16.5821
    axis 3.68512 0.0193738 -0.131023 xyz
    dof rx ry rz
  end
  begin
    id 4
    name RightFoot
    direction 0.00079151 -0.46099 0.887405
    length 3.77069
    axis 4.81691e-005 -0.120479 -0.188788 xyz
    dof rx ry rz
  end
  begin
    id 5
    name RightToes
    direction 0 0 0
    length 0
    axis 0 0 0 xyz
    dof rx ry rz
  end
  begin
    id 6
    name SpineDummy
    direction 8.3039e-015 1 4.57515e-016
    length 4.6813
    axis 0 0 0 xyz
  end
  begin
    id 7
    name Spine
    direction -3.15643e-008 0.999988 0.00495137
    length 10.1015
    axis -0.001389 0.000121418 2.40972e-006 xyz
    dof rx ry rz
  end
  begin
    id 8
    name Spine1
    direction 0 0 0
    length 0
    axis -0.001389 0.000121451 1.30017e-006 xyz
    dof rx ry rz
  end
  begin
    id 9
    name HEadDummy
    direction -1.99912e-008 0.999999 0.00127422
    length 3.43865
    axis -0.001389 0.000121451 1.30017e-006 xyz
  end
  begin
    id 10
    name HEad
    direction 0 0 0
    length 0
    axis 0 0 0 xyz
    dof rx ry rz
  end
  begin
    id 11
    name LeftShoulder1Dummy
    direction 0.998891 -0.0402509 -0.0244456
    length 3.5433
    axis -0.001389 0.000121451 1.30017e-006 xyz
  end
  begin
    id 12
    name LeftShoulder1
    direction 0.99951 -0.000327763 0.0313091
    length 4.05031
    axis -0.001389 0.000121451 1.30017e-006 xyz
    dof rx ry rz
  end
  begin
    id 13
    name LeftArm
    direction 0.998561 -0.00100056 -0.0536182
    length 10.3537
    axis -23.1894 0.134784 0.967509 xyz
    dof rx ry rz
  end
  begin
    id 14
    name LeftForeArm
    direction 0.998903 0.00866432 0.046012
    length 8.70632
    axis -9.91835 -0.06569 -0.177794 xyz
    dof rx ry rz
  end
  begin
    id 15
    name LeftHand
    direction 0 0 0
    length 0
    axis 0 0 0 xyz
    dof rx ry rz
  end
  begin
    id 16
    name RightShoulderDummy
    direction -0.998891 -0.0402509 -0.0244414
    length 3.5433
    axis -0.001389 0.000121451 1.30017e-006 xyz
  end
  begin
    id 17
    name RightShoulder
    direction -0.99951 -0.000327807 0.0313133
    length 4.05031
    axis 0.215806 0.000203643 -0.0068026 xyz
    dof rx ry rz
  end
  begin
    id 18
    name RightArm
    direction -0.998573 -0.000999564 -0.053403
    length 10.3947
    axis -23.2009 -0.134239 -0.964101 xyz
    dof rx ry rz
  end
  begin
    id 19
    name RightForeArm
    direction -0.998898 0.00868028 0.0461306
    length 8.68355
    axis -9.92322 0.0658061 0.178868 xyz
    dof rx ry rz
  end
  begin
    id 20
    name RightHand
    direction 0 0 0
    length 0
    axis 0 0 0 xyz
    dof rx ry rz
  end
  begin
    id 21
    name LeftUpLegDummy
    direction 0.718183 -0.695806 0.00816078
    length 4.904
    axis 0 0 0 xyz
  end
  begin
    id 22
    name LeftUpLeg
    direction -6.81752e-006 -0.995793 0.0916337
    length 17.4976
    axis -3.48766 0.00143442 -0.000524262 xyz
    dof rx ry rz
  end
  begin
    id 23
    name LeftLeg
    direction -0.00601358 -0.995091 -0.0987824
    length 16.5821
    axis 3.68178 -0.00654042 -0.000285133 xyz
    dof rx ry rz
  end
  begin
    id 24
    name LeftFoot
    direction -0.00417578 -0.460984 0.887399
    length 3.77069
    axis 1.87233e-006 4.66016e-005 -8.6538e-006 xyz
    dof rx ry rz
  end
  begin
    id 25
    name LeftToes
    direction 0 0 0
    length 0
    axis 0 0 0 xyz
    dof rx ry rz
  end
:hierarchy
  begin
    root RightUpLegDummy SpineDummy LeftUpLegDummy
    RightUpLegDummy RightUpLeg
    RightUpLeg RightLeg
    RightLeg RightFoot
    RightFoot RightToes
    SpineDummy Spine
    Spine Spine1
    Spine1 HEadDummy LeftShoulder1Dummy RightShoulderDummy
    HEadDummy HEad
    LeftShoulder1Dummy LeftShoulder1
    LeftShoulder1 LeftArm
    LeftArm LeftForeArm
    LeftForeArm LeftHand
    RightShoulderDummy RightShoulder
    RightShoulder RightArm
    RightArm RightForeArm
    RightForeArm RightHand
    LeftUpLegDummy LeftUpLeg
    LeftUpLeg LeftLeg
    LeftLeg LeftFoot
    LeftFoot LeftToes
  end

:SAMPLES-PER-SECOND 30
:FULLY-SPECIFIED
:DEGREES
207
root  -25.849 40.2897 1.73307 -119.678 -87.3399 115.804
RightUpLeg  -12.9501 -10.0343 -8.01609
RightLeg  2.36843 -10.2328 4.50934
RightFoot  6.6191 -1.40678 9.20894
RightToes  0.000481921 0.542163 -0.142578
Spine  0.993512 -3.72476 -8.02595
Spine1  19.1273 -6.77533 6.85213
HEad  47.8638 -8.10745 -1.14142
LeftShoulder1  9.08838 -12.9683 -48.1633
LeftArm  3.38291 -13.6143 -22.9194
LeftForeArm  36.7913 -32.2405 -5.02707
LeftHand  -0.25398 0.0180481 5.50724
RightShoulder  4.93218 8.27787 35.8842
RightArm  -2.69057 -14.624 36.0883
RightForeArm  16.9361 14.6595 5.8083
RightHand  -0.524281 1.09901 -9.5154
LeftUpLeg  8.01993 5.29336 -3.56855
LeftLeg  8.30992 21.1955 -3.53455
LeftFoot  -12.3398 0.0830079 0.993655
LeftToes  1.06246e-005 4.65868e-005 -8.65513e-006
208
root  -26.5532 40.3694 1.54941 -96.0115 -87.8614 92.4156
RightUpLeg  -12.3104 -9.67027 -7.30986
RightLeg  2.70623 -10.4213 4.5784
RightFoot  8.39574 -0.628805 3.97195
RightToes  0.000481921 0.542163 -0.142578
Spine  0.133854 -3.82973 -6.97899
Spine1  19.2007 -6.87292 7.00799
HEad  47.0031 -8.19598 -0.874706
LeftShoulder1  9.25875 -13.0849 -48.7256
LeftArm  7.35528 -11.1168 -23.7555
LeftForeArm  34.6015 -28.0478 -4.15187
LeftHand  -0.25398 0.0180481 5.50724
RightShoulder  4.9175 8.18763 36.077
RightArm  -2.57467 -13.8397 35.7274
RightForeArm  16.4931 14.7957 5.79614
RightHand  -0.53058 1.1387 -9.57145
LeftUpLeg  9.34905 5.32618 -2.79092
LeftLeg  7.23215 19.7489 -3.91922
LeftFoot  -12.0482 0.0744031 0.318367
LeftToes  1.06246e-005 4.65868e-005 -8.65513e-006
209
root  -27.2956 40.467 1.35049 -70.6903 -88.2691 67.3897
RightUpLeg  -12.1047 -9.23339 -6.34064
RightLeg  3.50709 -10.7018 4.45416
RightFoot  9.50768 0.287191 -1.24223
RightToes  0.000481921 0.542163 -0.142578
Spine  -0.771125 -3.76493 -5.11519
Spine1  19.2422 -6.63269 6.65682
HEad  45.9183 -8.18141 -0.73024
LeftShoulder1  9.49076 -13.2034 -49.5942
LeftArm  10.2209 -8.06871 -24.3591
LeftForeArm  32.8827 -23.6232 -3.57783
LeftHand  -0.25398 0.0180481 5.50724
RightShoulder  4.92797 8.13877 36.3365
RightArm  -2.61686 -12.8402 35.2979
RightForeArm  16.181 14.7134 5.83667
RightHand  -0.514401 0.981754 -9.49539
LeftUpLeg  10.4462 5.45888 -1.73718
LeftLeg  6.68 18.5525 -3.89582
LeftFoot  -11.6252 0.068105 -0.644511
LeftToes  1.06246e-005 4.65868e-005 -8.65513e-006
210
root  -28.0608 40.5537 1.14168 -51.971 -88.5823 48.8377
RightUpLeg  -11.8298 -9.12639 -5.59725
RightLeg  4.92779 -10.8601 4.25447
RightFoot  8.72546 0.595937 -3.01612
RightToes  0.000481921 0.542163 -0.142578
Spine  -1.4212 -3.44591 -2.86513
Spine1  19.1569 -5.99332 5.83659
HEad  44.6563 -8.05251 -0.756214
LeftShoulder1  9.69902 -13.2579 -50.5115
LeftArm  8.19305 -4.35497 -24.79
LeftForeArm  34.7406 -19.1831 -4.44871
LeftHand  -0.25398 0.0180481 5.50724
RightShoulder  4.94591 8.14515 36.464
RightArm  -3.01632 -11.507 34.9303
RightForeArm  16.4117 14.3125 5.91438
RightHand  -0.510356 0.91677 -9.51132
LeftUpLeg  11.2831 6.01232 -0.542787
LeftLeg  7.05318 17.4529 -3.53361
LeftFoot  -11.191 0.0701075 -2.11614
LeftToes  1.06246e-005 4.65868e-005 -8.65513e-006
211
root  -28.8235 40.6522 0.907062 -35.0175 -88.6956 31.9632
RightUpLeg  -10.9844 -9.50896 -5.17572
RightLeg  5.97144 -10.6594 4.27544
RightFoot  6.89248 0.394855 -2.15748
RightToes  0.000481921 0.542163 -0.142578
Spine  -1.7658 -3.00961 -0.842125
Spine1  18.9147 -5.25001 5.08717
HEad  43.2414 -7.92694 -0.871954
LeftShoulder1  9.81959 -13.2556 -51.1369
LeftArm  1.7703 0.094093 -25.1828
LeftForeArm  39.0706 -15.0633 -5.95493
LeftHand  -0.25398 0.0180481 5.50724
RightShoulder  4.95906 8.18644 36.4276
RightArm  -3.49737 -10.0515 34.6468
RightForeArm  16.7796 13.8834 5.97649
RightHand  -0.533172 1.06989 -9.71133
LeftUpLeg  11.9191 7.42873 0.883757
LeftLeg  8.05438 15.3867 -3.07289
LeftFoot  -10.4605 0.0931411 -3.91364
LeftToes  1.06246e-005 4.65868e-005 -8.65513e-006
212
root  -29.5723 40.7508 0.629319 -19.7761 -88.1723 16.8716
RightUpLeg  -9.97517 -9.8048 -5.03889
RightLeg  6.56365 -10.8414 4.46298
RightFoot  5.27069 0.271811 -1.62297
RightToes  0.000481921 0.542163 -0.142578
Spine  -2.02443 -2.64253 0.612523
Spine1  18.5127 -4.64957 4.66907
HEad  41.7054 -7.91689 -0.902841
LeftShoulder1  9.86387 -13.2623 -51.3432
LeftArm  -3.1897 5.06926 -25.5239
LeftForeArm  40.7183 -11.8868 -6.44436
LeftHand  -0.25398 0.0180481 5.50724
RightShoulder  4.96666 8.2037 36.43
RightArm  -3.68802 -8.74425 34.3739
RightForeArm  16.5571 13.7505 6.00508
RightHand  -0.569156 1.29418 -10.0337
LeftUpLeg  12.0466 10.6231 2.60615
LeftLeg  9.92356 10.906 -2.26039
LeftFoot  -9.42002 0.155575 -5.88914
LeftToes  1.06246e-005 4.65868e-005 -8.65513e-006
213
root  -30.2929 40.815 0.325758 -12.0664 -87.0753 9.47752
RightUpLeg  -9.3514 -9.81166 -4.94761
RightLeg  7.31901 -11.7962 4.52913
RightFoot  4.02519 0.33568 -2.28669
RightToes  0.000481921 0.542163 -0.142578
Spine  -2.33892 -2.36339 1.97649
Spine1  18.0289 -4.08238 4.2771
HEad  40.1046 -7.8586 -0.835269
LeftShoulder1  9.88179 -13.3177 -51.2686
LeftArm  -5.26859 10.018 -25.4027
LeftForeArm  40.3931 -9.84893 -6.44975
LeftHand  -0.25398 0.0180481 5.50724
RightShoulder  4.96066 8.14849 36.5754
RightArm  -3.53328 -7.61097 34.1142
RightForeArm  15.707 13.9507 6.0082
RightHand  -0.60126 1.45185 -10.3622
LeftUpLeg  11.2443 15.5757 4.45416
LeftLeg  13.0813 4.19881 -0.856264
LeftFoot  -8.33113 0.26908 -8.33917
LeftToes  1.06246e-005 4.65868e-005 -8.65513e-006
214
root  -30.9716 40.8161 0.0251894 -7.13835 -85.8398 4.93561
RightUpLeg  -9.15563 -9.99078 -4.68517
RightLeg  8.68803 -12.8448 4.3419
RightFoot  2.5059 0.370292 -2.9012
RightToes  0.000481921 0.542163 -0.142578
Spine  -2.58554 -2.04898 3.79435
Spine1  17.5552 -3.3185 3.53676
HEad  38.393 -7.41765 -0.933525
LeftShoulder1  9.88481 -13.3811 -51.0952
LeftArm  -5.23548 14.4808 -24.6441
LeftForeArm  40.4246 -8.95633 -6.4668
LeftHand  -0.25398 0.0180481 5.50724
RightShoulder  4.94159 8.06419 36.7163
RightArm  -3.1243 -6.51943 33.9151
RightForeArm  14.666 14.3612 5.98716
RightHand  -0.628214 1.56451 -10.6539
LeftUpLeg  9.2198 18.2162 5.72634
LeftLeg  17.6893 -0.29153 0.342856
LeftFoot  -7.21994 0.451591 -11.286
LeftToes  1.06246e-005 4.65868e-005 -8.65513e-006
215
root  -31.6022 40.7772 -0.263377 -3.39297 -84.687 1.41841
RightUpLeg  -8.94088 -10.2804 -4.31163
RightLeg  10.3054 -13.7269 4.07947
RightFoot  0.661958 0.317943 -2.97668
RightToes  0.000481921 0.542163 -0.142578
Spine  -2.48909 -1.63362 5.92799
Spine1  17.0267 -2.36379 2.49102
HEad  36.3765 -6.54394 -1.47362
LeftShoulder1  9.83645 -13.3837 -50.8415
LeftArm  -4.35477 18.3627 -23.5702
LeftForeArm  41.33 -9.1164 -6.49776
LeftHand  -0.25398 0.0180481 5.50724
RightShoulder  4.93238 8.04627 36.7034
RightArm  -2.48373 -5.34798 33.714
RightForeArm  13.6631 14.838 5.96191
RightHand  -0.651234 1.65568 -10.9032
LeftUpLeg  6.24831 15.6284 6.28869
LeftLeg  23.4606 0.449905 0.555011
LeftFoot  -5.29371 0.75269 -13.5859
LeftToes  1.06246e-005 4.65868e-005 -8.65513e-006
216
root  -32.1698 40.7089 -0.53805 -0.615578 -83.5278 -1.40354
RightUpLeg  -8.64352 -10.5118 -3.84507
RightLeg  12.0662 -14.6139 3.67757
RightFoot  -1.17458 0.266307 -3.08486
RightToes  0.000481921 0.542163 -0.142578
Spine  -1.90787 -1.21793 8.00901
Spine1  16.3761 -1.42225 1.48541
HEad  33.9719 -5.58291 -2.41203
LeftShoulder1  9.73016 -13.3297 -50.4582
LeftArm  -3.71479 21.782 -22.6615
LeftForeArm  41.6499 -9.99243 -6.32458
LeftHand  -0.25398 0.0180481 5.50724
RightShoulder  4.93707 8.10318 36.5393
RightArm  -1.80523 -3.95433 33.4079
RightForeArm  12.861 15.1539 5.97505
RightHand  -0.66018 1.66671 -11.0336
LeftUpLeg  2.796 13.3149 6.92727
LeftLeg  30.0908 0.978145 0.957715
LeftFoot  -2.11587 1.14017 -13.9807
LeftToes  1.06246e-005 4.65868e-005 -8.65513e-006
